<svg xmlns="http://www.w3.org/2000/svg" viewBox="0 0 50.3 50.77" class="{{ className }}"><g data-name="Layer 1" fill-rule="evenodd"><path d="M50.28 23.27c.21 3.42-1 6.89-2.68 10.32a36 36 0 0 1-6.51 9 25.08 25.08 0 0 1-12.49 6.73c-1.92.48-3.87.89-5.81 1.29a7.78 7.78 0 0 1-4-.26 20.21 20.21 0 0 1-2.29-.88 22.92 22.92 0 0 1-9.92-8.31c-.57-.88-1.18-1.75-1.81-2.59a27.73 27.73 0 0 1-4.48-9.88 6.46 6.46 0 0 1-.21-1.15c-.3-5.06.13-9.94 2.87-14.46a31.53 31.53 0 0 1 7.49-8.76A20.33 20.33 0 0 1 22.36 0a32.18 32.18 0 0 1 15.39 2.89 16.81 16.81 0 0 1 4.47 3 25.29 25.29 0 0 1 5.46 6.69 19 19 0 0 1 2.6 10.69zm-2.92-.13c-.09-1.16-.08-2.34-.27-3.5A17.39 17.39 0 0 0 43.65 12a19.6 19.6 0 0 0-7.93-6.57A29.69 29.69 0 0 0 22.09 3.2a17.28 17.28 0 0 0-10.35 4.15A28.49 28.49 0 0 0 5 16c-2 3.77-2 7.79-1.61 11.88a.89.89 0 0 0 .05.22 25 25 0 0 0 3.56 8c1 1.28 1.88 2.6 2.79 3.9 2.32 3.38 5.67 5.4 9.35 7a5.09 5.09 0 0 0 1.24.35 12.49 12.49 0 0 0 1.62 0 14.89 14.89 0 0 1 2.56-.08 11.79 11.79 0 0 0 5.5-.76 24.16 24.16 0 0 0 11.34-8 31.94 31.94 0 0 0 3.69-5.95 18.71 18.71 0 0 0 2.27-9.42z"/><path d="M19.73 27a9.83 9.83 0 0 0-.64 1.47c-.64 2.38-1.24 4.75-1.84 7.14 0 .15 0 .31-.07.46a1.31 1.31 0 0 1-1.39 1.15 1.28 1.28 0 0 1-1.13-1.41c0-.93.14-1.87.27-2.79a73.06 73.06 0 0 0 .17-15 4.52 4.52 0 0 0-.58-2.34 9.87 9.87 0 0 0-1 1.16c-.82 1.24-1.67 2.46-2.38 3.78-1 1.77-1.83 3.61-2.75 5.42a2.74 2.74 0 0 1-.58.88 1 1 0 0 1-.82.19 1 1 0 0 1-.45-.73 1.71 1.71 0 0 1 .25-.89c1.6-3.08 3.19-6.17 4.87-9.21a8.47 8.47 0 0 1 1.76-2.18c1.37-1.26 2.84-.87 3.5.87a15.31 15.31 0 0 1 .79 4.72c.09 1.79.13 3.59.2 5.51.91-.56 1.72-1.24 2.81-.8s1.46 1.36 2.16 2.46c0-.55.09-.87.09-1.18 0-3.16-.1-6.33 0-9.5 0-1.91.27-3.81.47-5.71.09-.95.73-1.58 1.36-1.49a1.59 1.59 0 0 1 1.07 1.84 37.88 37.88 0 0 0-.45 7.71c.09 6.22.21 12.43.31 18.64a8.76 8.76 0 0 1 0 .93 1.25 1.25 0 0 1-2.47.33c-.23-.82-.36-1.68-.55-2.51-.53-2.25-1-4.48-1.64-6.71A15.44 15.44 0 0 0 20.05 27zM33.17 30.28a6.63 6.63 0 0 0-.75 1.44c-.43 1.57-.79 3.17-1.15 4.77-.1.48-.1 1-.17 1.51-.15 1-.61 1.48-1.35 1.47s-1.16-.53-1.27-1.54c-.07-.59-.13-1.17-.15-1.75-.2-6.09-.6-12.19-.31-18.28.1-2 .29-4 .48-6.06.07-.85.38-1.25.85-1.21.67.06.76.6.83 1.11a18.67 18.67 0 0 1 .14 2c.08 4.92.15 9.83.22 14.77 0 .29.06.57.1 1 .33-.34.53-.58.75-.79a2.06 2.06 0 0 1 3-.24c.76.51 1.19.36 1.23-.56.06-1.28 0-2.56 0-3.86a11.55 11.55 0 0 1 .18-1.43c1.79.12 2.09.44 2.08 1.95v10.55a1.32 1.32 0 0 1-1 1.27 1.4 1.4 0 0 1-1.53-.6 6.45 6.45 0 0 1-.49-1.18c-.27-.86-.47-1.73-.77-2.58a17.2 17.2 0 0 0-.92-1.76z"/></g></svg>