<svg xmlns="http://www.w3.org/2000/svg" viewBox="0 0 65.39 37.14"><title>i-vk</title><g id="Слой_2" data-name="Слой 2"><g id="Capa_1" data-name="Capa 1"><path d="M65,33.54a4.45,4.45,0,0,0-.22-.42,33.78,33.78,0,0,0-6.5-7.49l-.07-.07,0,0,0,0h0Q56,23.42,55.39,22.71A2.6,2.6,0,0,1,54.91,20,25.59,25.59,0,0,1,58,15.53q1.4-1.8,2.21-2.88,5.89-7.8,5.11-10l-.2-.34A2,2,0,0,0,64,1.78a5.38,5.38,0,0,0-2.18-.08l-9.8.07a1.28,1.28,0,0,0-.68,0l-.44.1L50.76,2l-.14.1a1.51,1.51,0,0,0-.37.36,2.32,2.32,0,0,0-.34.59,55.23,55.23,0,0,1-3.64,7.63Q45,12.75,44,14.29a17.54,17.54,0,0,1-1.77,2.27,12.33,12.33,0,0,1-1.29,1.17q-.58.44-.88.37L39.42,18a2.26,2.26,0,0,1-.77-.83,3.71,3.71,0,0,1-.39-1.32q-.1-.8-.12-1.37t0-1.63q0-1.05,0-1.42,0-1.29.05-2.8t.09-2.39q0-.88,0-1.86a7.8,7.8,0,0,0-.12-1.54,5.26,5.26,0,0,0-.36-1.08A1.83,1.83,0,0,0,37.2.9,3.94,3.94,0,0,0,36.05.45,22.75,22.75,0,0,0,31.46,0q-6.33-.07-8.14.81a4.58,4.58,0,0,0-1.29,1q-.61.75-.17.81a4.18,4.18,0,0,1,2.89,1.46l.2.41a6.46,6.46,0,0,1,.48,1.56,15.66,15.66,0,0,1,.31,2.47,26.26,26.26,0,0,1,0,4.24q-.17,1.76-.32,2.75A5.48,5.48,0,0,1,25,17.12a6.71,6.71,0,0,1-.41.75.58.58,0,0,1-.17.17,2.56,2.56,0,0,1-.92.17,2.16,2.16,0,0,1-1.16-.47,8.15,8.15,0,0,1-1.41-1.3,17.44,17.44,0,0,1-1.65-2.32q-.92-1.49-1.91-3.52l-.54-1q-.51-.95-1.4-2.76T13.82,3.33A2.24,2.24,0,0,0,13,2.24l-.17-.1a2.33,2.33,0,0,0-.54-.29,3.63,3.63,0,0,0-.78-.22L2.18,1.7a2.38,2.38,0,0,0-1.94.64l-.14.2a1.09,1.09,0,0,0-.1.54A2.69,2.69,0,0,0,.2,4q2,4.78,4.44,9.22t4.17,7.15q1.77,2.71,3.61,5.12t2.43,3.08q.6.68.94,1l.85.81A20.18,20.18,0,0,0,19,32.35a41,41,0,0,0,3.51,2.24A19.07,19.07,0,0,0,27,36.39a15.55,15.55,0,0,0,5,.56h3.92a2.72,2.72,0,0,0,1.8-.75l.14-.17a2.24,2.24,0,0,0,.26-.63,3.43,3.43,0,0,0,.12-.93,11.12,11.12,0,0,1,.22-2.63A6.88,6.88,0,0,1,39,30.08a4.33,4.33,0,0,1,.73-1,3,3,0,0,1,.58-.49l.27-.12a2.17,2.17,0,0,1,1.92.53,11.28,11.28,0,0,1,2.08,2q1,1.17,2.33,2.63a16,16,0,0,0,2.38,2.17l.68.41a8.31,8.31,0,0,0,1.77.75,3.83,3.83,0,0,0,1.91.17l8.72-.14a4,4,0,0,0,2-.42,1.68,1.68,0,0,0,.85-.93,2.61,2.61,0,0,0,0-1.15A4.24,4.24,0,0,0,65,33.54Z"/></g></g></svg>